<svg xmlns="http://www.w3.org/2000/svg" width="4500" height="718"><path fill="#00193F" d="M1795.957 240.598a586.293 586.293 0 0 1 5.563 5.109c2.115 1.956 4.272 3.819 6.48 5.668 41.248 36.029 63.364 93.253 67.625 146.688C1878.754 453.07 1865.509 508.526 1832 553l-1.318 1.78c-35.307 47.503-89.514 80.575-148.11 89.732-7.087.968-14.198 1.667-21.322 2.3l-2.17.194c-14.742 1.275-29.107 1.033-43.83-.318l-2.28-.207c-53.426-4.89-103.152-26.178-141.97-63.481l-1.802-1.72c-42.493-40.75-66.988-97.14-68.42-155.925-1.07-61.276 16.663-120.227 59.355-165.394L1463 257l1.612-1.69c8.22-8.6 16.788-16.285 26.388-23.31l3.172-2.328c77.286-54.985 180.517-57.86 301.785 10.926Zm-265.416 76.646c-4.617 5.263-8.651 10.944-12.541 16.756l-1.957 2.914c-21.9 35.1-25.033 80.17-16.012 119.738 2.702 10.996 6.947 21.222 11.969 31.348l.933 1.89c14.586 28.904 42.502 52.586 73.067 63.11 39.626 12.857 82.123 12.233 119.787-6.814 12.816-6.73 23.818-15.172 34.213-25.186l2.363-2.137c22.484-20.965 36.135-55.54 37.743-85.864.057-2.07.084-4.136.097-6.206l.021-2.3c.018-2.435.024-4.87.026-7.305l.003-2.517c-.01-12.154-.473-23.792-3.253-35.671l-.809-3.824c-4.906-20.867-15.823-39.648-29.191-56.176l-2.195-2.758c-1.524-1.892-2.967-3.655-4.805-5.242h-2v-2c-27.031-25.623-62.552-37.495-99.25-37.313l-2.321.006c-40.667.163-78.087 15.338-105.888 45.55Z"/><path fill="#00193F" d="M1067 193c241.014 0 241.014 0 281 32l1.684 1.344c8.095 6.522 15.117 13.246 21.316 21.656l1.855 2.488c23.51 32.54 28.825 73.368 23.145 112.512-6.04 35.128-24.127 65.875-53.087 87.011-6.615 4.664-13.67 8.404-20.913 11.989 5.36 11.357 11.718 22.138 18 33l3.55 6.152 5.6 9.7c4.64 8.036 9.251 16.088 13.85 24.148a5712.601 5712.601 0 0 0 15.5 27 7690.94 7690.94 0 0 1 20.42 35.604c3.59 6.289 7.182 12.576 10.775 18.863 4.89 8.557 4.89 8.557 6.729 11.793.961 1.671 1.94 3.333 2.949 4.976.946 1.547 1.8 3.15 2.627 4.764l-1 3a2106.08 2106.08 0 0 1-40.45.697 919.14 919.14 0 0 0-18.784.314c-6.05.17-12.095.237-18.148.234-2.302.016-4.604.07-6.904.16-14.64.553-14.64.553-20.714-2.405-5.298-5.115-8.186-11.767-10.941-18.49-1.432-3.394-3.196-6.48-5.055-9.658a6207.89 6207.89 0 0 1-3.441-6.227A2821.483 2821.483 0 0 0 1282.5 580.5c-5.333-9.407-10.597-18.851-15.842-28.308a7937.451 7937.451 0 0 0-17.893-32.042 8134.51 8134.51 0 0 1-5.507-9.85l-1.875-3.354a8482.808 8482.808 0 0 1-3.502-6.275C1234 493.73 1230.009 486.872 1226 480l-64-1v161h-95V193Zm95 82v121l41.5.188 13.006.082c3.915.01 3.915.01 7.831.016 1.717.005 3.434.015 5.15.03 22.469.192 41.29-2.819 58.325-18.691 10.73-11.32 15.472-26.648 15.153-42.02-.696-16.894-5.13-31.11-16.965-43.605-16.446-14.551-33.96-16.446-54.957-16.512-1.774-.015-3.548-.032-5.322-.05-6.51-.058-13.022-.09-19.534-.125L1162 275Zm1143-82h125c2.657 6.644 5.183 13.226 7.469 19.992l.96 2.822c1.026 3.02 2.049 6.04 3.071 9.061l2.155 6.349a6325.627 6325.627 0 0 1 13.32 39.712c3.876 11.676 7.84 23.32 11.845 34.953a2925.438 2925.438 0 0 1 10.555 31.236c4.085 12.313 8.24 24.6 12.438 36.875l.888 2.599c2.397 7.009 4.797 14.017 7.198 21.025 6.612 19.3 13.204 38.604 19.628 57.967 4.973 14.982 10.059 29.926 15.15 44.868 4.38 12.854 8.736 25.714 13.01 38.603a4290.096 4290.096 0 0 0 12.25 36.313l.89 2.606a4622.12 4622.12 0 0 0 8.803 25.589c1.113 3.198 2.223 6.399 3.331 9.599a2070.1 2070.1 0 0 0 2.308 6.592l1.403 4.048 1.222 3.493c1.342 4.486 2.188 9.107 3.106 13.698l-104-1-8-26a1903.538 1903.538 0 0 0-5.938-17.938l-1.53-4.56-2.31-6.876a2820.425 2820.425 0 0 1-4.956-14.892l-1.262-3.816c-.778-2.353-1.553-4.706-2.326-7.06l-1.033-3.12-.896-2.717c-.577-1.988-.577-1.988-1.749-3.021-2.063-.097-4.13-.122-6.194-.12l-1.983-.003c-2.208-.002-4.416.004-6.624.01l-4.73-.001c-4.293 0-8.586.006-12.879.013-4.482.006-8.963.006-13.445.008-8.493.003-16.986.011-25.478.021-9.666.011-19.332.017-28.999.022-19.889.01-39.779.028-59.668.05a74715.654 74715.654 0 0 0-6.526 19.559c-5.122 15.345-10.153 30.718-15.146 46.106-1.017 3.132-2.036 6.263-3.055 9.394l-.915 2.827-.853 2.62-.738 2.275c-.842 2.435-1.81 4.826-2.767 7.219h-103c1.763-5.878 3.525-11.7 5.46-17.516.228-.68.454-1.362.687-2.063a5214.2 5214.2 0 0 1 2.228-6.671l.787-2.358c4.323-12.953 8.727-25.877 13.162-38.792a3454.276 3454.276 0 0 0 11.426-33.85c4.846-14.608 9.786-29.182 14.75-43.75 4.943-14.505 9.862-29.018 14.688-43.563 7.49-22.569 15.208-45.06 22.945-67.546l2.992-8.704.741-2.156c3.987-11.607 7.885-23.241 11.75-34.888A4034.19 4034.19 0 0 1 2268 301.5c4.348-12.69 8.65-25.393 12.875-38.125 4.854-14.626 9.788-29.223 14.75-43.813l1.073-3.16c1.008-2.966 2.018-5.932 3.029-8.898l.913-2.69.855-2.503.738-2.168c.86-2.404 1.819-4.772 2.767-7.143Zm62 106-.527 1.656a19170.5 19170.5 0 0 1-5.65 17.729l-2.082 6.537c-5.135 16.142-10.433 32.224-15.803 48.29l-.78 2.33-.785 2.348a9733.413 9733.413 0 0 0-12.641 38.15 8795.35 8795.35 0 0 1-3.986 12.07 6265.355 6265.355 0 0 0-3.971 12.029c-.494 1.497-.989 2.994-1.486 4.49-.687 2.072-1.369 4.146-2.05 6.22l-1.168 3.54c-1.23 4.148-2.132 8.387-3.071 12.611h109c-1.805-6.018-3.614-12.03-5.496-18.023l-.695-2.215c-.747-2.38-1.497-4.758-2.247-7.137l-.791-2.513a2131.566 2131.566 0 0 0-12.519-38.334c-4.146-12.337-8.106-24.725-11.993-37.145-4.286-13.684-8.758-27.3-13.34-40.887-2.428-7.214-4.814-14.43-6.919-21.746h-1ZM731 193c243.52 0 243.52 0 285 35l2.707 2.281c21.154 18.457 33.61 41.692 40.293 68.719l.543 2.173c5.128 21.78 4.868 49.143-.543 70.827l-.602 2.451c-5.254 20.67-14.814 38.136-28.398 54.549l-2.016 2.586c-2.959 3.6-6.425 6.424-9.984 9.414l-2.508 2.168c-33.32 28.22-76.593 36.212-119.082 36.344-1.823.015-3.646.032-5.47.05-6.626.057-13.252.09-19.878.125L826 480v160h-95V193Zm95 82-1 121 42.563.188 13.35.082c4.01.01 4.01.01 8.022.016 1.762.005 3.524.015 5.286.03 20.536.171 39.7-2.165 55.779-16.316 6.382-6.541 10.92-13.4 14-22l.965-2.656c5.077-16.658 2.798-34.93-5.001-50.26C952.617 291.564 940.51 282.657 926 278c-6.504-1.58-12.716-2.3-19.397-2.319l-2.707-.03c-2.853-.03-5.707-.048-8.56-.065-1.777-.017-3.554-.035-5.33-.054-6.544-.062-13.088-.109-19.631-.157L826 275Zm1061-82c249.83 0 249.83 0 293.84 42.754 28.011 28.236 37.411 64.852 37.34 103.704-.065 8.708-.504 16.98-2.18 25.542l-.358 2.032c-5.962 33.545-24.862 62.957-52.496 82.934-32.72 22.582-71.637 29.653-110.736 29.327-1.823-.004-3.646-.008-5.47-.01-6.626-.015-13.252-.057-19.878-.096L1982 479v161h-95V193Zm95 82v121l41.5.188 13.006.082c3.915.01 3.915.01 7.831.016 1.717.005 3.434.015 5.15.03 21.807.187 40.423-2.568 57.138-17.691 12.192-13.476 17.17-27.688 16.652-46.094-1.347-17.156-7.198-31.968-20.277-43.531-12.186-9.078-24.904-13.1-39.943-13.205l-2.705-.03c-2.875-.032-5.75-.057-8.625-.081l-5.343-.057c-6.587-.068-13.173-.128-19.759-.19L1982 275ZM326 8l.75 1.875c1.49 2.532 2.626 2.932 5.25 4.125 1.02.98 2.021 1.979 3 3l3 2 3 3 3 2 3 3 3 2 3 3 3 2 3 3 3 2 3 3 3 2 3 3 3 2 2 2 2 1.5c2 1.5 2 1.5 4 3.5l2 1.5c2 1.5 2 1.5 4 3.5l2 1.5c2 1.5 2 1.5 4 3.5l2 1.5c2 1.5 2 1.5 4 3.5l2 1.5c2 1.5 2 1.5 4 3.5l2 1.5c2 1.5 2 1.5 4 3.5l2 1.5c2 1.5 2 1.5 4 3.5l2 1.5c2 1.5 2 1.5 4 3.5l2 1.5c2 1.5 2 1.5 4 3.5l2 1.5c2 1.5 2 1.5 4 3.5l2 1.5c2 1.5 2 1.5 4 3.5l2 1.5c2 1.5 2 1.5 4 3.5a899.154 899.154 0 0 0 6 5c12 10 12 10 13.605 11.355 2.405 2.025 4.776 3.9 7.395 5.645l3 3c2.93 2.503 5.793 4.862 9 7l3 3 3 2 3 3 3 2 3 3 3 2 3 3 3 2 3 3 3 2 3 3 3 2 3 3 3 2 3 3 3 2 3 3 3 2 3 3 3 2 3 3 3 2 2 2 2 1.5c2 1.5 2 1.5 4 3.5l2 1.5c2 1.5 2 1.5 4 3.5l2 1.5c2 1.5 2 1.5 4 3.5l2 1.5c2 1.5 2 1.5 4 3.5l2 1.5c2 1.5 2 1.5 4 3.5l2 1.5c2 1.5 2 1.5 4 3.5l2 1.5c2 1.5 2 1.5 4 3.5l2 1.5c2 1.5 2 1.5 4 3.5l2 1.5c2 1.5 2 1.5 4 3.5l2 1.5c2 1.5 2 1.5 4 3.5l2.063 1.5C619 253 619 253 620 255c.093 2.533.126 5.038.114 7.57v2.366c0 2.587-.009 5.173-.016 7.76l-.005 5.372c-.003 4.718-.013 9.436-.024 14.154-.012 5.659-.017 11.317-.023 16.976-.01 8.6-.029 17.201-.046 25.802l-72-1v-48l-4-2-2-2-2-1.5c-2-1.5-2-1.5-4-3.5a899.154 899.154 0 0 0-6-5c-72-60-72-60-75.063-62.563-3.324-2.758-6.657-5.486-10.125-8.062C443 200 443 200 441 198l-2-1.5c-2-1.5-2-1.5-4-3.5l-2-1.5c-2-1.5-2-1.5-4-3.5l-2-1.5c-2-1.5-2-1.5-4-3.5l-2-1.5c-2-1.5-2-1.5-4-3.5l-2-1.5c-2-1.5-2-1.5-4-3.5l-2-1.5c-2-1.5-2-1.5-4-3.5l-2-1.5c-2-1.5-2-1.5-4-3.5l-2-1.5c-2-1.5-2-1.5-4-3.5l-2-1.5c-2-1.5-2-1.5-4-3.5l-2-1.5c-2-1.5-2-1.5-4-3.5l-2-1.5c-2-1.5-2-1.5-4-3.5l-2-1.5c-2-1.5-2-1.5-4-3.5l-2-1.5c-2-1.5-2-1.5-4-3.5l-2-1.5c-2-1.5-2-1.5-4-3.5a899.154 899.154 0 0 0-6-5l-18-15-1.605-1.32c-2.58-2.128-5.094-4.251-7.395-6.68l-3 1v2l-2.438.813L316 105l-1 3-5 2-1 3-5 2-1 3-5 2-1 3-5 2-1 3-5 2-1 3-5 2-1 3-5 2-1 3-5 2-1 3-5 2-1 3-5 2-1 3c-2.563 1.188-2.563 1.188-5 2v2l-6 3v2l-6 3v2l-6 3v2l-6 3v2l-6 3v2l-6 3v2l-6 3v2l-6 3v2l-6 3v2l-6 3v2l-6 3v2l-6 3v2l-6 3v2l-6 3v2l-6 3v2l-6 3v2l-2.438.813L149 244l-1 3-5 2-1 3-5 2-1 3-5 2-1 3-5 2-1 3-5 2-1 3-5 2-1 3-5 2-1 3a124.97 124.97 0 0 1-5 2c-1.211 2.422-1.124 3.943-1.123 6.65l-.006 2.989.009 3.307-.003 3.495c-.001 3.21.002 6.422.007 9.632.004 3.459.003 6.918.002 10.377 0 5.995.003 11.991.008 17.987.008 8.669.011 17.337.012 26.006.002 14.064.01 28.128.019 42.191.009 13.664.016 27.328.02 40.992v2.551l.005 12.67c.01 35.05.028 70.102.05 105.153l38 1v70H28a126100.155 126100.155 0 0 1-.715-168.248c-.07-18.7-.158-37.398-.253-56.097-.096-19.176-.174-38.35-.233-57.526-.038-11.84-.09-23.68-.162-35.52-.047-8.11-.076-16.22-.09-24.33a2270 2270 0 0 0-.066-14.054c-.035-4.285-.048-8.568-.041-12.852-.002-1.555-.013-3.11-.032-4.664-.026-2.104-.02-4.207-.008-6.312l-.015-3.55C27 253 27 253 29.537 251.226L32 250v-2l6-3v-2l6-3v-2l6-3v-2l6-3v-2l6-3v-2l6-3v-2l6-3v-2l6-3v-2l6-3v-2l6-3v-2l2.438-.813L97 196l1-3 5-2 1-3 5-2 1-3 5-2 1-3 5-2 1-3 5-2 1-3 5-2 1-3 5-2 1-3c2.563-1.188 2.563-1.188 5-2v-2l2.938-1.313c3.34-1.388 3.34-1.388 4.062-4.687 2.563-1.188 2.563-1.188 5-2v-2l6-3v-2l6-3v-2l6-3v-2l6-3v-2l6-3v-2l6-3v-2l6-3v-2l6-3v-2l6-3v-2l6-3v-2l6-3v-2l6-3v-2l6-3v-2l6-3v-2l6-3v-2l6-3v-2l6-3v-2l6-3v-2l2.438-.813L270 52l1-3 5-2 1-3 5-2 1-3 5-2 1-3 5-2 1-3 5-2 1-3 5-2 1-3 5-2 1-3 5-2 1-3c2.463-1.231 4.28-1.072 7-1Z"/><path fill="#00193E" d="M2586 193c226.672 0 226.672 0 253 13l2.508 1.145c23.917 11.208 41.89 32.591 51.492 56.855 4.63 13.542 6.38 26.915 6.313 41.188l-.018 3.844c-.4 31.066-11.734 56.697-33.705 78.693-4.472 4.34-9.31 7.958-14.59 11.275l1.477.96c2.521 1.66 5.02 3.351 7.523 5.04l3.152 2.063c28.574 19.135 45.156 46.857 52.848 79.937 1.253 7.594 1.244 15.141 1.25 22.813l.002 2.242c-.045 31.295-8.7 59.777-29.252 83.945-.59.736-1.18 1.472-1.79 2.23-15.451 18.576-38.536 30.197-61.46 36.457l-2.087.578C2746.239 654.889 2664.903 640 2586 640V193Zm50 47v141c25.356.088 25.356.088 50.713.146 10.351.018 20.703.039 31.054.08 7.541.03 15.082.05 22.624.056 3.986.004 7.972.013 11.958.035 29.314.156 55.573-1.161 78.026-22.192 15.15-16.108 19.505-36 18.973-57.41-.833-17.878-7.101-32.425-20.348-44.715-14.246-10.91-32.561-17.135-50.498-17.12l-3.829-.004-4.145.01h-4.407c-3.973 0-7.946.006-11.918.013-4.158.006-8.315.006-12.472.008-7.866.003-15.731.01-23.597.021a42407.1 42407.1 0 0 1-31.901.024c-16.744.01-33.489.03-50.233.048Zm0 186v167l74.813.188 23.522.082c7.028.01 7.028.01 14.056.016 3.102.003 6.205.014 9.307.03 32.042.163 62.498-.821 87.091-24.101 15.217-15.244 22.358-33.543 22.54-55.072-.005-1.14-.01-2.28-.017-3.456l-.014-3.611c-.113-8.414-.679-16.028-3.298-24.076l-1.066-3.332c-6.991-19.82-21.097-34.77-39.828-43.937-18.46-8.66-37.693-9.9-57.8-9.845h-4.33c-3.825 0-7.648.006-11.472.013-3.604.005-7.208.006-10.812.006-10.501.006-21.003.02-31.505.033L2636 426Z"/><path fill="#00193F" d="M322 186c3.215 2.067 6.266 4.158 9.188 6.625 2.76 2.422 2.76 2.422 5.812 4.375l3 3 3 2 3 3 3 2 3 3 3 2 3 3 3 2 3 3 3 2 3 3 3 2 3 3 3 2 3 3 3 2 3 3 3 2 3 3 3 2 3 3 3 2 2 2 2 1.5c2 1.5 2 1.5 4 3.5l2 1.5c2 1.5 2 1.5 4 3.5l2 1.5c2 1.5 2 1.5 4 3.5l2 1.5c2 1.5 2 1.5 4 3.5l2 1.5c2 1.5 2 1.5 4 3.5l2 1.5c2 1.5 2 1.5 4 3.5l2 1.5c2 1.5 2 1.5 4 3.5l2 1.5c2 1.5 2 1.5 4 3.5l2 1.5c2 1.5 2 1.5 4 3.5l2 1.5c2 1.5 2 1.5 4 3.5l2 1.5c3.675 2.756 6.755 6.255 10 9.5.098 2.454.13 4.88.12 7.333l.003 2.348c.002 2.625-.004 5.25-.01 7.874v5.707c.001 5.114-.005 10.227-.012 15.34-.005 4.791-.006 9.582-.006 14.373-.006 14.03-.02 28.058-.033 42.087L477 505l-202-1v-72h129l-.188-43.313-.02-13.68c-.03-4.044-.03-4.044-.066-8.087a554.48 554.48 0 0 1-.012-5.408 585.39 585.39 0 0 0-.055-8.185l.027-2.437c.004-2.48.004-2.48-.686-5.89-2.315-1.991-2.315-1.991-5-3a180.655 180.655 0 0 1-4-4 449.385 449.385 0 0 0-6-5c-48-40-48-40-51.063-42.563A485.578 485.578 0 0 0 329 284l-2.563-2.313c-2.264-1.96-2.264-1.96-4.75-1.437L320 281v2l-6 3v2l-6 3v2l-6 3v2l-6 3v2l-6 3v2l-6 3v2l-6 3v2l-6 3v2l-6 3v2l-6 3v2l-2.438.813L255 335l-1 3-5 2-1 3-5 2-1 294-71 1a91142.533 91142.533 0 0 1-.279-142.942 29123 29123 0 0 0-.107-47.659c-.046-16.291-.074-32.582-.084-48.874a9018.091 9018.091 0 0 0-.07-30.177c-.026-6.89-.034-13.78-.028-20.671.004-3.98-.001-7.96-.028-11.94-.024-3.64-.026-7.28-.008-10.92.003-1.948-.019-3.897-.041-5.845l.03-3.48-.006-3.016c.621-2.476.621-2.476 3.16-4.194L176 309v-2l6-3v-2l6-3v-2l6-3v-2l6-3v-2l6-3v-2l6-3v-2l6-3v-2l6-3v-2l6-3v-2l6-3v-2l6-3v-2l6-3v-2l2.438-.813L253 245l1-3 5-2 1-3 5-2 1-3 5-2 1-3 5-2 1-3 5-2 1-3 5-2 1-3 5-2 1-3 5-2 1-3 5-2 1-3 5-2 1-3 5-2 1-3 2-1Z"/><path fill="#00193E" d="M3381 193c243.963 0 243.963 0 303 56l1.483 1.384c13.021 12.219 23.763 26.14 32.46 41.731a363.157 363.157 0 0 0 3.256 5.65c17.805 31.233 26.143 69.45 26.801 105.235l.062 2.902c1.039 56.669-10.257 115.845-48.062 160.098-.903 1.098-1.806 2.197-2.707 3.297C3663.784 609.78 3614.595 632.494 3563 639c-60.418 5.493-121.332 1-182 1V193Zm50 47v353c119.748 6.46 119.748 6.46 217-45l1.707-1.636c24.927-24.334 37.574-58.68 43.293-92.364l.368-2.159c4.002-25.056 3.212-52.972-1.368-77.841l-.52-2.827c-7.378-38.52-26.684-75.304-58.48-99.173l-2.914-2.203C3572.006 227.744 3499.13 240 3431 240Z"/><path fill="#00193F" d="M4112.335 235.48c16.57 15.126 30.03 32.135 40.227 52.145l1.052 2.046c1.695 3.437 2.386 5.42 2.386 9.329-41.716 21-41.716 21-45 21l-1.617-3.629c-15.701-34.584-40.85-60.375-76.62-74.238-39.98-14.877-89.379-11.307-127.968 5.964-12.632 5.987-24.358 13.618-34.795 22.903l-2.535 2.172C3844.96 292.789 3828.34 319.342 3820 348l-.674 2.311c-5.005 17.493-8.444 34.963-8.53 53.209l-.016 2.967c-.01 2.065-.016 4.13-.02 6.194-.01 3.085-.04 6.17-.073 9.255-.09 16.943 1.518 33.48 5.688 49.939l.658 2.64c.636 2.5 1.295 4.994 1.967 7.485l1.012 3.773c6.986 23.115 19.423 43.954 34.988 62.227.855 1.083 1.709 2.166 2.562 3.25 3.206 3.616 6.743 6.647 10.438 9.75l2.328 2.059c26.202 22.544 61.67 35.942 96.23 36.144l2.389.017c1.66.01 3.319.016 4.979.02 2.475.01 4.949.04 7.424.072 14.924.1 29.212-1.88 43.525-6.187l2.687-.794c6.692-2.019 13.138-4.28 19.438-7.331l1.887-.9c34.31-16.567 60.774-45.537 73.363-81.6 2.327-7.068 3.81-14.234 5.062-21.563l.484-2.824c1.366-8.756 1.677-17.15 2.204-26.113h-154v-44h204c0 77.187-8.11 131.955-61 186-2.56 2.491-5.207 4.774-8 7l-2.742 2.25c-8.874 7.148-18.422 13.028-28.258 18.75l-1.88 1.117c-36.35 21.463-81.136 27.617-122.62 23.633l-2.132-.204C3898.575 641.22 3847.484 615.608 3812 573a234.468 234.468 0 0 1-20-29l-1.879-3.004c-33.751-55.57-38.153-127.917-23.594-190.07 9.18-37.352 28.195-72.72 54.963-100.364a434.63 434.63 0 0 0 3.188-3.334c60.189-63.477 163.533-80.736 287.657-11.748Z"/><path fill="#00193E" d="M2949 193c222.627 0 222.627 0 264.188 40.75 6.467 6.525 11.876 13.515 16.812 21.25l1.1 1.702c5.915 9.278 9.688 18.832 12.9 29.298l.61 1.974c10.987 36.35 6.842 76.435-10.527 110.04-15.867 29.1-43.876 50.584-75.083 60.986a4339.223 4339.223 0 0 0 26.097 45.71c3.116 5.387 6.23 10.776 9.34 16.165l1.865 3.23a5837.013 5837.013 0 0 1 14.773 25.797 2317.208 2317.208 0 0 0 14.05 24.285c5.417 9.24 10.677 18.56 15.89 27.917a878.186 878.186 0 0 0 10.485 18.333l1.211 2.057c1.722 2.91 3.47 5.795 5.27 8.658l1.706 2.723 1.45 2.242C3262 638 3262 638 3261 641c-7.329.078-14.656.107-21.985.075-3.404-.013-6.806-.01-10.21.031-3.917.047-7.832.021-11.75-.008l-3.685.074c-8.245-.14-8.245-.14-11.38-3.016-1.577-2.317-2.805-4.618-3.99-7.156l-1.991-3.414-1.743-3.211-.968-1.771c-.674-1.234-1.345-2.468-2.016-3.702a2339.327 2339.327 0 0 0-5.325-9.738l-1.054-1.92a439.278 439.278 0 0 0-7.965-13.869c-4.26-7.123-8.297-14.363-12.313-21.625a2269.181 2269.181 0 0 0-17.993-31.908c-3.174-5.527-6.342-11.059-9.507-16.592l-1.024-1.79a3463.285 3463.285 0 0 1-17.722-31.413c-4.111-7.358-8.247-14.701-12.379-22.047l-107-1v173h-50V193Zm50 47v180l58.188.25 18.246.11c5.486.014 5.486.014 10.971.022 2.409.006 4.817.02 7.225.04 31.469.255 59.672-4.342 83.245-26.797 17.672-18.517 23.547-42.687 23.27-67.68-.888-24.235-8.778-46.314-26.672-63.351-23.89-20.487-51.252-23.075-81.504-22.887-2.387.004-4.773.008-7.16.01-8.77.015-17.54.057-26.309.095L2999 240Zm1213-47h288v47h-238v152h227v47c-1.865 1.865-4.537 1.123-7.018 1.13l-2.644-.01-2.787.003c-3.106.002-6.213-.004-9.319-.01l-6.65.001c-6.04 0-12.078-.006-18.117-.013-6.304-.006-12.607-.006-18.91-.008-10.587-.002-21.174-.009-31.76-.018-10.907-.009-21.813-.016-32.72-.02h-2.056l-17.71-.007c-25.436-.01-50.872-.03-76.309-.048l-1 153h238v47h-288V193Z"/><path fill="#001A40" d="M620 367v273l-345-1v-70h273V368c71-1 71-1 72-1Z"/><path fill="#00193E" d="M3280 193h50v447h-50V193Z"/><path fill="#004DB9" d="M620 367v273l-345-1v-70h273V368c71-1 71-1 72-1Zm-70 3v201H277v66h340V370h-67Z"/><path fill="#00479F" d="m326 8 .75 1.875c1.49 2.532 2.626 2.932 5.25 4.125 1.02.98 2.021 1.979 3 3l3 2 3 3 3 2 3 3 3 2 3 3 3 2 3 3 3 2 3 3 3 2 3 3 3 2 2 2 2 1.5c2 1.5 2 1.5 4 3.5l2 1.5c2 1.5 2 1.5 4 3.5l2 1.5c2 1.5 2 1.5 4 3.5l2 1.5c2 1.5 2 1.5 4 3.5l2 1.5c2 1.5 2 1.5 4 3.5l2 1.5c2 1.5 2 1.5 4 3.5l2 1.5c2 1.5 2 1.5 4 3.5l2 1.5c2 1.5 2 1.5 4 3.5l2 1.5c2 1.5 2 1.5 4 3.5l2 1.5c2 1.5 2 1.5 4 3.5l2 1.5c2 1.5 2 1.5 4 3.5l2 1.5c2 1.5 2 1.5 4 3.5a899.154 899.154 0 0 0 6 5c12 10 12 10 13.605 11.355 2.405 2.025 4.776 3.9 7.395 5.645l3 3c2.93 2.503 5.793 4.862 9 7l3 3 3 2 3 3 3 2 3 3 3 2 3 3 3 2 3 3 3 2 3 3 3 2 3 3 3 2 3 3 3 2 3 3 3 2 3 3 3 2 3 3 3 2 2 2 2 1.5c2 1.5 2 1.5 4 3.5l2 1.5c2 1.5 2 1.5 4 3.5l2 1.5c2 1.5 2 1.5 4 3.5l2 1.5c2 1.5 2 1.5 4 3.5l2 1.5c2 1.5 2 1.5 4 3.5l2 1.5c2 1.5 2 1.5 4 3.5l2 1.5c2 1.5 2 1.5 4 3.5l2 1.5c2 1.5 2 1.5 4 3.5l2 1.5c2 1.5 2 1.5 4 3.5l2 1.5c2 1.5 2 1.5 4 3.5l2.063 1.5C619 253 619 253 620 255c.093 2.533.126 5.038.114 7.57v2.366c0 2.587-.009 5.173-.016 7.76l-.005 5.372c-.003 4.718-.013 9.436-.024 14.154-.012 5.659-.017 11.317-.023 16.976-.01 8.6-.029 17.201-.046 25.802l-72-1v-48l-4-2-2-2-2-1.5c-2-1.5-2-1.5-4-3.5a899.154 899.154 0 0 0-6-5c-72-60-72-60-75.063-62.563-3.324-2.758-6.657-5.486-10.125-8.062C443 200 443 200 441 198l-2-1.5c-2-1.5-2-1.5-4-3.5l-2-1.5c-2-1.5-2-1.5-4-3.5l-2-1.5c-2-1.5-2-1.5-4-3.5l-2-1.5c-2-1.5-2-1.5-4-3.5l-2-1.5c-2-1.5-2-1.5-4-3.5l-2-1.5c-2-1.5-2-1.5-4-3.5l-2-1.5c-2-1.5-2-1.5-4-3.5l-2-1.5c-2-1.5-2-1.5-4-3.5l-2-1.5c-2-1.5-2-1.5-4-3.5l-2-1.5c-2-1.5-2-1.5-4-3.5l-2-1.5c-2-1.5-2-1.5-4-3.5l-2-1.5c-2-1.5-2-1.5-4-3.5l-2-1.5c-2-1.5-2-1.5-4-3.5l-2-1.5c-2-1.5-2-1.5-4-3.5a899.154 899.154 0 0 0-6-5l-18-15-1.605-1.32c-2.58-2.128-5.094-4.251-7.395-6.68l-1.813 1.063C320 102 320 102 317 101l6-5c5.813 4.186 11.236 8.722 16.65 13.401 4.463 3.853 8.996 7.605 13.573 11.322a684.885 684.885 0 0 1 9.277 7.777 737.305 737.305 0 0 0 12 10c4.605 3.748 9.14 7.57 13.664 11.414A660.462 660.462 0 0 0 398.5 158.5c4.605 3.748 9.14 7.57 13.664 11.414 4.301 3.649 8.66 7.222 13.035 10.781 3.069 2.525 6.091 5.1 9.113 7.68a370.234 370.234 0 0 0 13.563 11c5.745 4.456 11.256 9.136 16.726 13.925 4.477 3.916 9.034 7.713 13.657 11.458a626.518 626.518 0 0 1 9.242 7.742 736.86 736.86 0 0 0 12 10c4.605 3.748 9.14 7.57 13.664 11.414A660.462 660.462 0 0 0 523.5 262.5a860.118 860.118 0 0 1 12.188 10.125l1.546 1.307c1.002.85 1.997 1.707 2.983 2.575 1.782 1.537 1.782 1.537 3.822 2.91 3.141 2.334 5.555 4.172 6.663 8.022.222 2.873.2 5.647.08 8.526l-.025 2.778c-.042 3.4-.153 6.797-.257 10.195L550 332h67c.2-13.417.2-13.417.28-26.834.005-5.48.024-10.959.128-16.438.083-4.423.102-8.843.078-13.266.001-1.68.026-3.36.074-5.039.409-10.211.409-10.211-4.36-18.82-3.18-2.886-6.63-5.227-10.2-7.603a304.767 304.767 0 0 1-5.5-4.5l-2.688-2.188c-3.692-3.036-7.333-6.13-10.976-9.226A660.462 660.462 0 0 0 573.5 219.5c-4.605-3.748-9.14-7.57-13.664-11.414A660.462 660.462 0 0 0 549.5 199.5a738.936 738.936 0 0 1-12-10c-4.77-4.05-9.58-8.044-14.43-11.996-9.579-7.812-19.122-15.664-28.538-23.671-4.195-3.563-8.451-7.046-12.72-10.52-3.692-3.037-7.333-6.131-10.976-9.227A660.462 660.462 0 0 0 460.5 125.5c-4.605-3.748-9.14-7.57-13.664-11.414A660.462 660.462 0 0 0 436.5 105.5c-4.605-3.748-9.14-7.57-13.664-11.414A660.462 660.462 0 0 0 412.5 85.5c-4.605-3.748-9.14-7.57-13.664-11.414A660.462 660.462 0 0 0 388.5 65.5c-4.605-3.748-9.14-7.57-13.664-11.414A660.462 660.462 0 0 0 364.5 45.5a738.643 738.643 0 0 1-12-10c-5.775-4.905-11.622-9.718-17.5-14.5-2.064-1.686-4.125-3.374-6.188-5.063l-2.792-2.285L324 12c-3.917 1.652-6.89 4.304-10.063 7.063a3529.227 3529.227 0 0 1-3.507 3.007l-1.76 1.51c-2.339 1.989-4.721 3.924-7.108 5.858C297.317 32.892 293.147 36.426 289 40a676.353 676.353 0 0 1-15.219 12.719c-3.145 2.58-6.246 5.207-9.344 7.843a512.469 512.469 0 0 1-13.824 11.329c-3.741 3.02-7.402 6.133-11.06 9.254-1.514 1.29-3.033 2.572-4.553 3.855l-2.7 2.39L230 89l-3-1c1.135-3.291 1.993-3.996 5.125-5.75L235 81v-2l6-3v-2l6-3v-2l6-3v-2l6-3v-2l6-3v-2l2.438-.813L270 52l1-3 5-2 1-3 5-2 1-3 5-2 1-3 5-2 1-3 5-2 1-3 5-2 1-3 5-2 1-3 5-2 1-3c2.463-1.231 4.28-1.072 7-1Z"/><path fill="#004CB4" d="M322 186c3.215 2.067 6.266 4.158 9.188 6.625 2.76 2.422 2.76 2.422 5.812 4.375l3 3 3 2 3 3 3 2 3 3 3 2 3 3 3 2 3 3 3 2 3 3 3 2 3 3 3 2 3 3 3 2 3 3 3 2 3 3 3 2 3 3 3 2 2 2 2 1.5c2 1.5 2 1.5 4 3.5l2 1.5c2 1.5 2 1.5 4 3.5l2 1.5c2 1.5 2 1.5 4 3.5l2 1.5c2 1.5 2 1.5 4 3.5l2 1.5c2 1.5 2 1.5 4 3.5l2 1.5c2 1.5 2 1.5 4 3.5l2 1.5c2 1.5 2 1.5 4 3.5l2 1.5c2 1.5 2 1.5 4 3.5l2 1.5c2 1.5 2 1.5 4 3.5l2 1.5c2 1.5 2 1.5 4 3.5l2 1.5c3.675 2.756 6.755 6.255 10 9.5.098 2.454.13 4.88.12 7.333l.003 2.348c.002 2.625-.004 5.25-.01 7.874v5.707c.001 5.114-.005 10.227-.012 15.34-.005 4.791-.006 9.582-.006 14.373-.006 14.03-.02 28.058-.033 42.087L477 505l-202-1v-72h129l-.188-43.313-.02-13.68c-.03-4.044-.03-4.044-.066-8.087a554.48 554.48 0 0 1-.012-5.408 585.39 585.39 0 0 0-.055-8.185l.027-2.437c.004-2.48.004-2.48-.686-5.89-2.315-1.991-2.315-1.991-5-3a180.655 180.655 0 0 1-4-4 449.385 449.385 0 0 0-6-5c-48-40-48-40-51.063-42.563A485.578 485.578 0 0 0 329 284l-2.563-2.313c-2.264-1.96-2.264-1.96-4.75-1.437L320 281v2l-6 3v2h-4c1.555-4.083 4.25-6.082 7.625-8.75l3.04-2.422L323 275c5.134 3.693 9.905 7.64 14.598 11.875 3.399 3.007 6.925 5.848 10.449 8.707a663.64 663.64 0 0 1 9.453 7.918 736.567 736.567 0 0 0 12 10c4.6 3.744 9.132 7.562 13.65 11.403a759.76 759.76 0 0 0 13.217 10.929L399 338l1.76 1.207c4.85 3.568 4.85 3.568 5.875 6.792.225 2.372.232 4.654.16 7.036l.002 2.735a506.895 506.895 0 0 1-.113 8.722c-.01 1.801-.018 3.602-.022 5.403-.036 6.66-.134 13.32-.224 19.98L406 435H277v67h197l.375-92.75.228-29.253c0-8.676 0-8.676-.018-17.353-.008-3.856.024-7.71.08-11.566.069-4.929.07-9.854.025-14.783-.006-1.802.012-3.605.056-5.406.325-10.627.325-10.627-4.78-19.539-2.895-2.657-5.979-4.957-9.232-7.155-2.561-1.765-4.917-3.759-7.296-5.757l-2.66-2.16a684.885 684.885 0 0 1-9.278-7.778 737.305 737.305 0 0 0-12-10c-4.605-3.748-9.14-7.57-13.664-11.414A660.462 660.462 0 0 0 405.5 258.5c-4.605-3.748-9.14-7.57-13.664-11.414A660.462 660.462 0 0 0 381.5 238.5a738.936 738.936 0 0 1-12-10 908.505 908.505 0 0 0-14.422-11.988c-3.87-3.158-7.724-6.335-11.578-9.512a5502.21 5502.21 0 0 0-19.5-16 46.734 46.734 0 0 0-7.75 4.625l-1.86 1.352L313 198v-5l2.938-1.313c3.34-1.388 3.34-1.388 4.062-4.687l2-1Z"/><path fill="#004BB5" d="M87 204h2c-1.559 4.154-4.597 6.47-7.938 9.188l-1.765 1.464A953.188 953.188 0 0 1 74 219l-2.848 2.332a3350.478 3350.478 0 0 1-5.34 4.356c-3.688 3.032-7.325 6.123-10.963 9.215-4.42 3.75-8.898 7.428-13.4 11.081a248.483 248.483 0 0 0-6.511 5.578C32 254 32 254 30 254v383h105v-66H97a32979.04 32979.04 0 0 1-.55-122.125l-.007-2.594c-.044-13.855-.123-27.71-.215-41.565a8308.524 8308.524 0 0 1-.169-42.657c-.014-8.772-.057-17.544-.138-26.316a1648.77 1648.77 0 0 1-.056-18.052c.006-3.471-.003-6.94-.057-10.411-.05-3.77-.038-7.533-.01-11.302l-.089-3.305c.094-4.77.385-7.582 3.495-11.326 2.51-2.28 5.067-4.34 7.796-6.347l2.926-2.46 2.386-1.915A654.379 654.379 0 0 0 124.5 260.5 952.035 952.035 0 0 1 142 246l2.625-2.316L147 242l3 1c-.688 1.875-.688 1.875-2 4a208.063 208.063 0 0 1-5 2l-1 3-5 2-1 3-5 2-1 3-5 2-1 3-5 2-1 3-5 2-1 3-5 2-1 3a124.97 124.97 0 0 1-5 2c-1.211 2.422-1.124 3.943-1.123 6.65l-.006 2.989.009 3.307-.003 3.495c-.001 3.21.002 6.422.007 9.632.004 3.459.003 6.918.002 10.377 0 5.995.003 11.991.008 17.987.008 8.669.011 17.337.012 26.006.002 14.064.01 28.128.019 42.191.009 13.664.016 27.328.02 40.992v2.551l.005 12.67c.01 35.05.028 70.102.05 105.153l38 1v70H28a126100.155 126100.155 0 0 1-.715-168.248c-.07-18.7-.158-37.398-.253-56.097-.096-19.176-.174-38.35-.233-57.526-.038-11.84-.09-23.68-.162-35.52-.047-8.11-.076-16.22-.09-24.33a2270 2270 0 0 0-.066-14.054c-.035-4.285-.048-8.568-.041-12.852-.002-1.555-.013-3.11-.032-4.664-.026-2.104-.02-4.207-.008-6.312l-.015-3.55C27 253 27 253 29.537 251.226L32 250v-2l6-3v-2l6-3v-2l6-3v-2l6-3v-2l6-3v-2l6-3v-2l6-3v-2l6-3v-2l2.938-1.438c2.867-1.264 2.867-1.264 4.062-2.562Z"/><path fill="#00288C" d="M179 308c-.813 1.938-.813 1.938-2 4l-3 1v324h66l-.206-26.722c-.21-28.232-.354-56.463-.458-84.696l-.05-13.16-.01-2.647a9509.557 9509.557 0 0 0-.279-42.395 6623.517 6623.517 0 0 1-.22-43.518 2729.34 2729.34 0 0 0-.18-26.842c-.069-6.14-.09-12.279-.073-18.42a480.22 480.22 0 0 0-.074-10.618c-.418-22.255-.418-22.255 4.438-28.19 3.086-3.002 6.154-5.1 10.112-6.792l3 1c-.688 1.875-.688 1.875-2 4a208.063 208.063 0 0 1-5 2l-1 3-5 2-1 294-71 1a75861.997 75861.997 0 0 1-.334-142.886c-.026-15.88-.074-31.758-.129-47.638-.056-16.285-.09-32.571-.102-48.857a7504.555 7504.555 0 0 0-.082-30.163 3608.41 3608.41 0 0 1-.034-20.666c.004-3.978-.002-7.956-.034-11.934-.03-3.64-.031-7.278-.01-10.918a378.61 378.61 0 0 0-.05-5.837c.086-8.22.086-8.22 2.089-10.782 2.16-1.517 4.029-2.319 6.686-2.319Z"/><path fill="#002D90" d="m147 242 3 1c-.688 1.875-.688 1.875-2 4a208.063 208.063 0 0 1-5 2l-1 3-5 2-1 3-5 2-1 3-5 2-1 3-5 2-1 3-5 2-1 3-5 2-1 3a124.97 124.97 0 0 1-5 2c-1.211 2.422-1.124 3.943-1.123 6.65l-.006 2.989.009 3.307-.003 3.495c-.001 3.21.002 6.422.007 9.632.004 3.459.003 6.918.002 10.377 0 5.995.003 11.991.008 17.987.008 8.669.011 17.337.012 26.006.002 14.064.01 28.128.019 42.191.009 13.664.016 27.328.02 40.992v2.551l.005 12.67c.01 35.05.028 70.102.05 105.153l38 1v2H97a32979.04 32979.04 0 0 1-.55-122.125l-.007-2.594c-.044-13.855-.123-27.71-.215-41.565a8308.524 8308.524 0 0 1-.169-42.657c-.014-8.772-.057-17.544-.138-26.316a1648.77 1648.77 0 0 1-.056-18.052c.006-3.471-.003-6.94-.057-10.411-.05-3.77-.038-7.533-.01-11.302l-.089-3.305c.094-4.77.385-7.582 3.495-11.326 2.51-2.28 5.067-4.34 7.796-6.347l2.926-2.46 2.386-1.915A654.379 654.379 0 0 0 124.5 260.5 952.035 952.035 0 0 1 142 246l2.625-2.316L147 242Z"/><path fill="#004DAC" d="M323 96c5.813 4.186 11.236 8.722 16.65 13.401 4.463 3.853 8.996 7.605 13.573 11.322a684.885 684.885 0 0 1 9.277 7.777 737.305 737.305 0 0 0 12 10c4.605 3.748 9.14 7.57 13.664 11.414A660.462 660.462 0 0 0 398.5 158.5c4.605 3.748 9.14 7.57 13.664 11.414 4.301 3.649 8.66 7.222 13.035 10.781 3.069 2.525 6.091 5.1 9.113 7.68a370.234 370.234 0 0 0 13.563 11c5.745 4.456 11.256 9.136 16.726 13.925 4.477 3.916 9.034 7.713 13.657 11.458a626.518 626.518 0 0 1 9.242 7.742 736.86 736.86 0 0 0 12 10c4.605 3.748 9.14 7.57 13.664 11.414A660.462 660.462 0 0 0 523.5 262.5a860.118 860.118 0 0 1 12.188 10.125l1.546 1.307c1.002.85 1.997 1.707 2.983 2.575 1.782 1.537 1.782 1.537 3.822 2.91 3.141 2.334 5.555 4.172 6.663 8.022.222 2.873.2 5.647.08 8.526l-.025 2.778c-.042 3.4-.153 6.797-.257 10.195L550 332h68l1 2h-71v-48l-4-2-2-2-2-1.5c-2-1.5-2-1.5-4-3.5a899.154 899.154 0 0 0-6-5c-72-60-72-60-75.063-62.563-3.324-2.758-6.657-5.486-10.125-8.062C443 200 443 200 441 198l-2-1.5c-2-1.5-2-1.5-4-3.5l-2-1.5c-2-1.5-2-1.5-4-3.5l-2-1.5c-2-1.5-2-1.5-4-3.5l-2-1.5c-2-1.5-2-1.5-4-3.5l-2-1.5c-2-1.5-2-1.5-4-3.5l-2-1.5c-2-1.5-2-1.5-4-3.5l-2-1.5c-2-1.5-2-1.5-4-3.5l-2-1.5c-2-1.5-2-1.5-4-3.5l-2-1.5c-2-1.5-2-1.5-4-3.5l-2-1.5c-2-1.5-2-1.5-4-3.5l-2-1.5c-2-1.5-2-1.5-4-3.5l-2-1.5c-2-1.5-2-1.5-4-3.5l-2-1.5c-2-1.5-2-1.5-4-3.5l-2-1.5c-2-1.5-2-1.5-4-3.5a899.154 899.154 0 0 0-6-5l-18-15-1.605-1.32c-2.58-2.128-5.094-4.251-7.395-6.68l-1.813 1.063C320 102 320 102 317 101l6-5Z"/><path fill="#00479F" d="M322 186c3.215 2.067 6.266 4.158 9.188 6.625 2.76 2.422 2.76 2.422 5.812 4.375l3 3 3 2 3 3 3 2 3 3 3 2 3 3 3 2 3 3 3 2 3 3 3 2 3 3 3 2 3 3 3 2 3 3 3 2 3 3 3 2 3 3 3 2 2 2 2 1.5c2 1.5 2 1.5 4 3.5l2 1.5c2 1.5 2 1.5 4 3.5l2 1.5c2 1.5 2 1.5 4 3.5l2 1.5c2 1.5 2 1.5 4 3.5l2 1.5c2 1.5 2 1.5 4 3.5l2 1.5c2 1.5 2 1.5 4 3.5l2 1.5c2 1.5 2 1.5 4 3.5l2 1.5c2 1.5 2 1.5 4 3.5l2 1.5c2 1.5 2 1.5 4 3.5l2 1.5c2 1.5 2 1.5 4 3.5l2 1.5c3.675 2.756 6.755 6.255 10 9.5.098 2.454.13 4.88.12 7.333l.003 2.354c.002 2.623-.004 5.245-.01 7.868l.001 5.616c0 5.099-.006 10.198-.013 15.297-.006 5.322-.006 10.645-.008 15.967-.003 10.087-.011 20.173-.021 30.26-.011 11.48-.017 22.96-.022 34.44-.01 23.621-.028 47.243-.05 70.865-1.481-1.039-1.481-1.039-3-3a56.669 56.669 0 0 1-.305-7.38l.01-2.295c.014-2.548.05-5.094.085-7.641.014-1.823.026-3.647.037-5.47.026-3.932.06-7.864.099-11.796.059-6.225.084-12.45.1-18.674a881227.905 881227.905 0 0 1 .029-9.63c.043-14.494.114-28.986.264-43.479.1-9.773.151-19.545.145-29.319a921.29 921.29 0 0 1 .11-15.507c.08-4.871.095-9.738.061-14.61 0-1.78.022-3.56.07-5.34.355-10.608.355-10.608-4.736-19.506-2.896-2.657-5.98-4.959-9.234-7.158-2.561-1.764-4.918-3.758-7.298-5.757l-2.66-2.16a684.885 684.885 0 0 1-9.277-7.778 737.305 737.305 0 0 0-12-10c-4.605-3.748-9.14-7.57-13.664-11.414A660.462 660.462 0 0 0 405.5 258.5c-4.605-3.748-9.14-7.57-13.664-11.414A660.462 660.462 0 0 0 381.5 238.5a738.936 738.936 0 0 1-12-10 908.505 908.505 0 0 0-14.422-11.988c-3.87-3.158-7.724-6.335-11.578-9.512a5502.21 5502.21 0 0 0-19.5-16 46.734 46.734 0 0 0-7.75 4.625l-1.86 1.352L313 198v-5l2.938-1.313c3.34-1.388 3.34-1.388 4.062-4.687l2-1Z"/><path fill="#00448F" d="M619 367h1v273l-1-3h-2V370h-68v-1h70v-2Z"/><path fill="#004DBC" d="M256 334c-.688 1.875-.688 1.875-2 4a208.063 208.063 0 0 1-5 2l-1 3-5 2-1 294h-69v-2h67l-.206-26.722c-.21-28.232-.354-56.463-.458-84.696l-.05-13.16-.01-2.647a9509.557 9509.557 0 0 0-.279-42.395 6623.517 6623.517 0 0 1-.22-43.518 2729.34 2729.34 0 0 0-.18-26.842c-.069-6.14-.09-12.279-.073-18.42a480.22 480.22 0 0 0-.074-10.618c-.418-22.255-.418-22.255 4.438-28.19 3.71-3.609 7.814-7.558 13.112-5.792Z"/><path fill="#004EB4" d="M323 275c5.134 3.693 9.905 7.64 14.598 11.875 3.399 3.007 6.925 5.848 10.449 8.707a663.64 663.64 0 0 1 9.453 7.918 736.567 736.567 0 0 0 12 10c4.6 3.744 9.132 7.562 13.65 11.403a759.76 759.76 0 0 0 13.217 10.929L399 338c.58.4 1.162.798 1.76 1.21 4.85 3.574 4.85 3.574 5.875 6.773.225 2.347.232 4.603.16 6.96l.003 2.663c-.005 2.89-.06 5.777-.114 8.667-.013 2.01-.023 4.019-.03 6.028a1642.7 1642.7 0 0 1-.173 15.832c-.072 5.389-.104 10.778-.14 16.168A4624.737 4624.737 0 0 1 406 434l-2-1-.004-3.32c-.017-10.316-.06-20.63-.128-30.946-.034-5.303-.06-10.606-.064-15.91-.004-5.116-.032-10.231-.077-15.347a652.341 652.341 0 0 1-.013-5.863 585.59 585.59 0 0 0-.055-8.195l.027-2.461c.004-2.512.004-2.512-.686-5.958-2.313-1.998-2.313-1.998-5-3a180.655 180.655 0 0 1-4-4 449.385 449.385 0 0 0-6-5c-48-40-48-40-51.063-42.563A485.578 485.578 0 0 0 329 284l-2.563-2.313c-2.264-1.96-2.264-1.96-4.75-1.437L320 281v2l-6 3v2h-4c1.555-4.083 4.25-6.082 7.625-8.75l3.04-2.422L323 275Z"/><path fill="#004BB7" d="m147 242 3 1c-.688 1.875-.688 1.875-2 4a208.063 208.063 0 0 1-5 2l-1 3-5 2-1 3-5 2-1 3-5 2-1 3-5 2-1 3-5 2-1 3-5 2-1 3c-2.615 1.239-5.255 2.085-8 3v286h-1c-.229-36.409-.405-72.817-.51-109.227a78543.952 78543.952 0 0 0-.047-15.492c-.044-13.855-.123-27.71-.215-41.565a8308.524 8308.524 0 0 1-.169-42.657c-.014-8.772-.057-17.544-.138-26.316a1648.77 1648.77 0 0 1-.056-18.052c.006-3.471-.003-6.94-.057-10.411-.05-3.77-.038-7.533-.01-11.302l-.089-3.305c.094-4.77.385-7.582 3.495-11.326 2.51-2.28 5.067-4.34 7.796-6.347l2.926-2.46 2.386-1.915A654.379 654.379 0 0 0 124.5 260.5 952.035 952.035 0 0 1 142 246l2.625-2.316L147 242Z"/><path fill="#00459C" d="M323 96c5.813 4.186 11.236 8.722 16.65 13.401 4.463 3.853 8.996 7.605 13.573 11.322a684.885 684.885 0 0 1 9.277 7.777 737.305 737.305 0 0 0 12 10c4.605 3.748 9.14 7.57 13.664 11.414A660.462 660.462 0 0 0 398.5 158.5c4.605 3.748 9.14 7.57 13.664 11.414A660.462 660.462 0 0 0 422.5 178.5a730.716 730.716 0 0 1 13.635 11.399c2.671 2.277 5.361 4.509 8.135 6.66l3.043 2.379 2.738 2.09C452 203 452 203 452 207l-2.25-1.813a188.774 188.774 0 0 0-4.938-3.812C443 200 443 200 441 198l-2-1.5c-2-1.5-2-1.5-4-3.5l-2-1.5c-2-1.5-2-1.5-4-3.5l-2-1.5c-2-1.5-2-1.5-4-3.5l-2-1.5c-2-1.5-2-1.5-4-3.5l-2-1.5c-2-1.5-2-1.5-4-3.5l-2-1.5c-2-1.5-2-1.5-4-3.5l-2-1.5c-2-1.5-2-1.5-4-3.5l-2-1.5c-2-1.5-2-1.5-4-3.5l-2-1.5c-2-1.5-2-1.5-4-3.5l-2-1.5c-2-1.5-2-1.5-4-3.5l-2-1.5c-2-1.5-2-1.5-4-3.5l-2-1.5c-2-1.5-2-1.5-4-3.5l-2-1.5c-2-1.5-2-1.5-4-3.5l-2-1.5c-2-1.5-2-1.5-4-3.5a899.154 899.154 0 0 0-6-5l-18-15-1.605-1.32c-2.58-2.128-5.094-4.251-7.395-6.68l-1.813 1.063C320 102 320 102 317 101l6-5Z"/><path fill="#049" d="m266 143 2 2-1 3-5 2-1 3-5 2-1 3c-2.563 1.188-2.563 1.188-5 2v2l-6 3v2l-6 3v2l-6 3v2l-6 3v2l-6 3v2l-6 3v2l-6 3v2l-6 3v2l-6 3v2l-6 3v2l-6 3v2l-6 3v2l-6 3v2l-6 3v2l-6 3v2c-3.295 1.723-6.331 3.294-10 4 3.402-4.344 6.947-7.755 11.375-11.063a297.943 297.943 0 0 0 15.313-12.562 530.36 530.36 0 0 1 15.57-13.133 626.518 626.518 0 0 0 9.242-7.742 900.32 900.32 0 0 1 14.688-12.188 749.603 749.603 0 0 0 9.312-7.812 894.265 894.265 0 0 1 14.684-12.184 734.18 734.18 0 0 0 9.379-7.879A565.192 565.192 0 0 1 266 143Z"/><path fill="#002F7F" d="M471 309c6.114 6.114 6.114 6.114 6.13 11.102l-.01 2.231.003 2.354c.002 2.623-.004 5.245-.01 7.868l.001 5.616c0 5.099-.006 10.198-.013 15.297-.006 5.322-.006 10.645-.008 15.967-.003 10.087-.011 20.173-.021 30.26-.011 11.48-.017 22.96-.022 34.44-.01 23.621-.028 47.243-.05 70.865-1.476-1.035-1.476-1.035-3-3a58.234 58.234 0 0 1-.379-7.44l-.013-2.315c-.012-2.568-.002-5.136.007-7.704-.004-1.838-.01-3.676-.016-5.514-.012-3.961-.014-7.923-.01-11.884.007-6.26-.009-12.52-.028-18.78a20786.21 20786.21 0 0 1-.064-43.256c-.01-13.212-.027-26.425-.068-39.638-.018-6.227-.022-12.454-.015-18.68.002-3.87-.009-7.739-.023-11.607a882.33 882.33 0 0 1 .004-5.396c.008-2.449-.002-4.897-.016-7.346l.02-2.172c-.043-3.908-.043-3.908-1.923-7.233L470 312l1-3Z"/><path fill="#004DB9" d="M179 308c-.813 1.938-.813 1.938-2 4l-3 1v323h-1a83219.897 83219.897 0 0 1-.715-141.633c-.07-15.74-.158-31.482-.253-47.222a21355.84 21355.84 0 0 1-.233-48.427 8763.8 8763.8 0 0 0-.162-29.9 4238.04 4238.04 0 0 1-.09-20.483c-.01-3.943-.027-7.887-.066-11.83a941.087 941.087 0 0 1-.041-10.82c-.003-1.93-.03-3.861-.06-5.791l.02-3.45-.015-2.987C172 311 172 311 174.412 309.16 177 308 177 308 179 308Z"/><path fill="#0051C3" d="M549 285h1v47h68l1 2h-71l-.063-23.938-.027-7.566-.008-5.898-.015-3.125v-2.953l-.007-2.577C548 286 548 286 549 285Z"/><path fill="#00438C" d="M618 255h2v80c-3.207-3.207-3.347-3.899-3.384-8.185l.028-2.116-.007-2.243c-.003-2.447.016-4.892.035-7.339.003-1.697.005-3.394.006-5.092.004-3.556.019-7.111.04-10.667.03-4.568.04-9.136.044-13.704.005-3.503.014-7.007.026-10.51l.015-5.055c.006-2.349.02-4.698.036-7.047l.003-2.128c.043-4.8.043-4.8 1.158-5.914Z"/><path fill="#00479D" d="M153 149h2c-1.559 4.154-4.597 6.47-7.938 9.188l-1.765 1.464A953.188 953.188 0 0 1 140 164l-2.848 2.332c-1.78 1.456-3.564 2.91-5.347 4.363-5.321 4.373-10.558 8.845-15.805 13.305-22.861 19.43-22.861 19.43-26 21a84.76 84.76 0 0 1 2-7l5-2 1-3 5-2 1-3 5-2 1-3 5-2 1-3 5-2 1-3 5-2 1-3 5-2 1-3 5-2 1-3c2.563-1.188 2.563-1.188 5-2v-2l2.875-1.375c3.128-1.427 3.128-1.427 5.125-3.625Z"/><path fill="#0046A0" d="M89 204c-1.559 4.154-4.597 6.47-7.938 9.188l-1.765 1.464A953.188 953.188 0 0 1 74 219l-2.848 2.332a3350.478 3350.478 0 0 1-5.34 4.356A751.978 751.978 0 0 0 56.5 233.5 961.342 961.342 0 0 1 39 248l-2.578 2.148L34 252.125l-2.125 1.758L30 255l-3-1c2.894-2.894 5.723-5.542 9-8l2-2 4-3 2-2 4-3 2-2 4-3 2-2 4-3 2-2 4-3 2-2 4-3 2-2 4-3 2-2c6.458-5 6.458-5 9-5Z"/><path fill="#00469E" d="M309 288c-.125 2.313-.125 2.313-1 5-3.063 1.813-3.063 1.813-6 3v2l-6 3v2l-6 3v2l-6 3v2l-6 3v2l-6 3v2l-6 3v2c-3.295 1.723-6.331 3.294-10 4 3.402-4.344 6.947-7.755 11.375-11.063a297.899 297.899 0 0 0 15.313-12.562 526.719 526.719 0 0 1 16-13.496 258.476 258.476 0 0 0 5.875-4.942C307 288 307 288 309 288Z"/><path fill="#0049A3" d="m147 242 3 1c-.688 1.875-.688 1.875-2 4a208.063 208.063 0 0 1-5 2l-1 3-5 2-1 3-5 2-1 3-5 2-1 3-5 2-1 3-5 2-1 3-5 2-1 3-6 1c1.239-3.716 2.69-4.595 5.75-7l3.016-2.406 1.603-1.278c2.753-2.222 5.44-4.52 8.131-6.816a804.89 804.89 0 0 1 14.79-12.281c1.93-1.58 3.84-3.188 5.733-4.813l2.977-2.531 2.688-2.32L147 242Z"/><path fill="#0048A2" d="m314 103 3 1c-.688 1.875-.688 1.875-2 4a208.063 208.063 0 0 1-5 2l-1 3-5 2-1 3-5 2-1 3-5 2-1 3-5 2-1 3-5 2-1 3a89.286 89.286 0 0 1-5 2l-2 2-3-1c6.219-5.762 12.515-11.321 19.113-16.648 3.187-2.597 6.32-5.25 9.45-7.915 1.624-1.374 3.25-2.747 4.878-4.12 1.504-1.27 3.002-2.55 4.5-3.829l2.684-2.238 2.352-1.984L314 103Z"/><path fill="#004AA6" d="M291 213h2c-1.559 4.154-4.597 6.47-7.938 9.188l-1.767 1.467A904.61 904.61 0 0 1 278 228l-2.813 2.297a3933.698 3933.698 0 0 1-5.292 4.308c-4.01 3.318-7.945 6.72-11.862 10.147-3.854 3.341-7.844 6.335-12.033 9.248a84.76 84.76 0 0 1 2-7l5-2 1-3 5-2 1-3 5-2 1-3 5-2 1-3 5-2 1-3 5-2 1-3a89.286 89.286 0 0 1 5-2l2-2Z"/><path fill="#004DAC" d="M323 96c5.804 4.179 11.224 8.701 16.622 13.381 4.724 4.089 9.553 8.013 14.464 11.877L356 123v2c-5.07-1.297-7.467-3.202-11-7a381.113 381.113 0 0 0-6-5l-6-5-1.605-1.32c-2.58-2.128-5.094-4.251-7.395-6.68l-1.813 1.063C320 102 320 102 317 101l6-5Z"/><path fill="#004295" d="m326 8 .75 1.875c1.49 2.532 2.626 2.932 5.25 4.125 1.02.98 2.021 1.979 3 3l3 2c-2.5.438-2.5.438-6 0-2.915-2.085-5.462-4.475-8-7-4.833 1.983-8.44 5.696-12.31 9.1-2.552 2.21-4.454 3.821-7.69 4.9l-3-2 2.438-.813L306 22l1-3 5-2 1-3 5-2 1-3c2.463-1.231 4.28-1.072 7-1Z"/><path fill="#00459C" d="m224 90 3 1c-6.02 5.524-12.151 10.853-18.516 15.977-2.048 1.668-4.018 3.386-5.984 5.148L200 114l-3-1c1.135-3.291 1.993-3.996 5.125-5.75L205 106v-2l6-3v-2l6-3v-2l2.938-1.438c2.867-1.264 2.867-1.264 4.062-2.562Z"/><path fill="#00469D" d="M225 268h2c-1.559 4.153-4.596 6.47-7.938 9.188l-1.743 1.438a909.252 909.252 0 0 1-3.568 2.928 278.02 278.02 0 0 0-4.95 4.2l-2.926 2.496-2.633 2.266L201 292l-3-1c1.135-3.291 1.993-3.996 5.125-5.75L206 284v-2l6-3v-2l6-3v-2l2.938-1.438c2.867-1.264 2.867-1.264 4.062-2.562Z"/><path fill="#004DAD" d="m448 111 12 10 1.57 1.285c2.968 2.438 5.766 4.948 8.43 7.715l-2 2-21-18 1-3Z"/><path fill="#004AA7" d="M243 253h2c-1.602 4.427-4.984 6.844-8.5 9.75l-1.8 1.535C230.262 268 230.262 268 228 268c.625-2.813.625-2.813 2-6 3.125-1.875 3.125-1.875 6-3v-2l2.938-1.438c2.867-1.264 2.867-1.264 4.062-2.562Z"/><path fill="#0049A3" d="M182 125h2c-1.602 4.427-4.984 6.844-8.5 9.75l-1.8 1.535C169.262 140 169.262 140 167 140c.625-2.813.625-2.813 2-6 3.125-1.875 3.125-1.875 6-3v-2l2.938-1.438c2.867-1.264 2.867-1.264 4.062-2.562Z"/><path fill="#004EAE" d="M345 207c4.98 1.067 7.929 2.839 11.438 6.5 1.695 1.716 1.695 1.716 4.562 3.5a87.756 87.756 0 0 1 3 5c-3.32-.597-5.149-1.692-7.672-3.906l-2.012-1.754-2.066-1.84-2.113-1.84c-3.73-3.277-3.73-3.277-5.137-4.66v-1Z"/><path fill="#00469E" d="M535 273c3.616 2.049 6.705 4.305 9.813 7.063l2.394 2.097C549 284 549 284 549 286l-5-1-1-3-2.5-1-2.5-1-1-3-3-1 1-3Z"/><path fill="#004BA6" d="m253 333 3 1c-.688 1.875-.688 1.875-2 4a208.063 208.063 0 0 1-5 2l-1 3c-3.563 1.188-3.563 1.188-7 2 1.52-3.802 3.774-5.772 6.938-8.313l2.652-2.175c.795-.5 1.59-.998 2.41-1.512Z"/><path fill="#004294" d="m109 274 3 3-2.438.813L107 279l-1 3-6 1c1.163-3.489 2.14-4.1 5.063-6.188l2.222-1.605L109 274Z"/><path fill="#004492" d="m65 221 1 2 2 1-9 7-3-3 6-3v-2l3-2Z"/><path fill="#004EAE" d="M302 25h2c-1.448 3.444-3.277 5.361-6.125 7.75l-2.195 1.86L294 36c-1-3-1-3-.375-5.063 1.786-2.516 3.507-2.933 6.375-3.937l2-2Z"/><path fill="#0050B3" d="M334 19c4.047.867 7.048 2.048 10 5a197.599 197.599 0 0 1 3 5c-3.884-.57-5.897-2.39-8.75-5l-2.422-2.188L334 20v-1Z"/><path fill="#004CAC" d="m195 293 3 1-9 8-3-1c1.123-3.256 1.959-3.977 5.063-5.688L194 294l1-1Z"/><path fill="#0049A5" d="M309 198h2c-1.426 3.452-3.097 5.101-6.125 7.25l-2.195 1.578L301 208v-5l2.875-1.375c3.128-1.427 3.128-1.427 5.125-3.625Z"/><path fill="#004FB0" d="M123 174h2c-1.448 3.444-3.277 5.361-6.125 7.75l-2.195 1.86L115 185c-1-3-1-3-.375-5.063 1.786-2.516 3.507-2.933 6.375-3.937l2-2Z"/><path fill="#004DAB" d="m224 90 3 1-9 8-3-1c1.123-3.256 1.959-3.977 5.063-5.688L223 91l1-1Z"/><path fill="#003A8A" d="m262 57 1 2 2 1c-2.209 2.196-4.41 4.26-7 6-2.938-.125-2.938-.125-5-1l1.875-1.375c2.184-1.596 2.184-1.596 4.125-3.625l3-3Z"/><path fill="#004DA7" d="M225 268h2c-1.426 3.452-3.097 5.101-6.125 7.25l-2.195 1.578L217 278c.125-2.813.125-2.813 1-6 3-1.813 3-1.813 6-3l1-1Z"/><path fill="#004CA9" d="M153 149h2c-1.426 3.452-3.097 5.101-6.125 7.25l-2.195 1.578L145 159v-5l2.875-1.375c3.128-1.427 3.128-1.427 5.125-3.625Z"/><path fill="#004DAA" d="M194 115h2c-1.592 4.3-4.355 6.397-8 9l-3-1c1.123-3.256 1.959-3.977 5.063-5.688L193 116l1-1Z"/><path fill="#0053AF" d="M254 65h2c-1.592 4.3-4.355 6.397-8 9l-3-1c1.123-3.256 1.959-3.977 5.063-5.688L253 66l1-1Z"/><path fill="#004FB0" d="M513 168c4.047.867 7.048 2.048 10 5 .625 2.625.625 2.625 1 5a465.453 465.453 0 0 1-3.813-2.75l-2.144-1.547c-2.073-1.728-3.517-3.488-5.043-5.703Z"/><path fill="#004AA5" d="M164 140h2c-1.517 4.55-5.169 6.5-9 9v-5l2.938-1.438c2.867-1.264 2.867-1.264 4.062-2.562Z"/><path fill="#004EAB" d="m147 242 3 1c-1.052 2.868-1.636 3.823-4.438 5.188L143 249l-3 1c1.488-3.787 3.62-5.774 7-8Z"/><path fill="#0049A1" d="m266 143 2 2c-1 3-1 3-3.375 4.188C262 150 262 150 259 150l7-7Z"/><path fill="#004FAF" d="m284 128 3 1c-1.051 2.866-1.669 3.83-4.438 5.25C280 135 280 135 277 135l7-7Z"/><path fill="#00122D" d="m4106 535 1 3c-1.871 2.7-1.871 2.7-4.438 5.688l-2.558 3.011L4098 549l-2-1 1.934-2.336 2.503-3.039 2.497-3.023c2.05-2.399 2.05-2.399 3.066-4.602Z"/><path fill="#004CAA" d="M294 299c2 2 2 2 2 4-5.625 3-5.625 3-9 3l7-7Z"/><path fill="#004BAA" d="M206 193c2 2 2 2 2 4-5.625 3-5.625 3-9 3l7-7Z"/><path fill="#004CA9" d="M224 178c2 2 2 2 2 4-5.625 3-5.625 3-9 3l7-7Z"/><path fill="#0048A1" d="M475 224c3.795.393 5.51 2.243 8 5l-1 3c-5.75-4.75-5.75-4.75-8-7l1-1Z"/><path fill="#004394" d="M340 200c2.398 1.599 4.005 3.005 6 5l3 2c-2.75.25-2.75.25-6 0-2.375-2-2.375-2-4-4l1-3Z"/><path fill="#004293" d="M508 161c2.398 1.599 4.005 3.005 6 5l3 2c-2.75.25-2.75.25-6 0-2.375-2-2.375-2-4-4l1-3Z"/><path fill="#004091" d="M326 281c2.25-.25 2.25-.25 5 0 2.313 2 2.313 2 4 4l-1 3c-2.82-2.21-5.53-4.4-8-7Z"/><path fill="#00429F" d="M263.813 326.188 266 327a140.243 140.243 0 0 1-7 5l-3-1c4.308-5.046 4.308-5.046 7.813-4.813Z"/><path fill="#0055BF" d="m323 96 3 2v2l-2.25.438c-2.27.464-4.508.98-6.75 1.562 3.75-4.875 3.75-4.875 6-6Zm0 179 6 5-1 2-6-4 1-3Z"/><path fill="#0046AA" d="m155 235 1 2 2 1c-2.313 1.563-2.313 1.563-5 3l-3-1 5-5Z"/><path d="m3187 212 2 1Zm91-20 2 1ZM322 100l2 1Z"/></svg>